<svg xmlns="http://www.w3.org/2000/svg" width="20" height="20" viewBox="0 0 20 20" fill="none">
  <path fill-rule="evenodd" clip-rule="evenodd" d="M18.3434 13.6307C18.3434 15.3196 16.9696 16.6912 15.2829 16.6912H5.24156C3.55481 16.6912 2.18094 15.3195 2.18094 13.6307V7.24152C2.18056 6.6972 2.32638 6.16276 2.60316 5.69406L7.5027 10.5936C8.2357 11.3288 9.21731 11.7338 10.2632 11.7338C11.307 11.7338 12.2886 11.3288 13.0216 10.5936L17.9212 5.69406C18.198 6.16276 18.3438 6.6972 18.3434 7.24152V13.6307H18.3434ZM15.2828 4.18094H5.24156C4.545 4.18094 3.90199 4.41668 3.38762 4.80891L8.33645 9.75988C8.84871 10.27 9.53238 10.5529 10.2632 10.5529C10.992 10.5529 11.6757 10.27 12.1879 9.75988L17.1367 4.80891C16.6224 4.41668 15.9794 4.18094 15.2828 4.18094ZM15.2828 3H5.24156C2.90324 3 1 4.90324 1 7.24156V13.6307C1 15.9712 2.90324 17.8723 5.24156 17.8723H15.2828C17.6211 17.8723 19.5244 15.9712 19.5244 13.6307V7.24152C19.5244 4.9032 17.6211 3 15.2828 3Z" fill="white"/>
</svg>