<svg xmlns="http://www.w3.org/2000/svg" width="20" height="20" viewBox="0 0 20 20" fill="none">
  <g clip-path="url(#clip0_23817_1976)">
    <path d="M17.071 2.92891C15.1822 1.04016 12.671 0 9.99992 0H9.99984C7.32898 0 4.81758 1.04027 2.92891 2.92891C1.0402 4.81766 0 7.32887 0 10C7.8125e-05 11.7004 0.432813 13.3716 1.25359 14.8497L0.0216406 19.2563C-0.00633464 19.3563 -0.00718532 19.4621 0.0191758 19.5626C0.0455369 19.6631 0.0981613 19.7549 0.171653 19.8283C0.245144 19.9018 0.336859 19.9544 0.437391 19.9808C0.537924 20.0072 0.643658 20.0063 0.74375 19.9783L5.15043 18.7463C6.6284 19.5672 8.29953 20 9.99996 20C12.6711 20 15.1823 18.9598 17.0711 17.0711C18.9599 15.1823 20 12.6711 20 9.99996C19.9999 7.32883 18.9597 4.81766 17.071 2.92891ZM9.99992 18.8281C8.42391 18.8281 6.87691 18.4073 5.52605 17.6113C5.4581 17.5712 5.38274 17.5453 5.30451 17.5351C5.22628 17.5248 5.1468 17.5305 5.07082 17.5518L1.43043 18.5695L2.44816 14.9293C2.4694 14.8533 2.47509 14.7738 2.46487 14.6956C2.45466 14.6174 2.42875 14.542 2.38871 14.4741C1.5927 13.123 1.17195 11.5759 1.17188 9.99996C1.17188 7.64187 2.09016 5.42496 3.75758 3.75754C5.425 2.09012 7.64191 1.17188 9.99992 1.17188C14.8677 1.17188 18.828 5.13215 18.8281 9.99996C18.8281 14.8678 14.8678 18.8281 9.99992 18.8281Z" fill="white"/>
    <path d="M14.3164 10.7516C13.9582 10.3934 13.4806 10.1961 12.9715 10.1961C12.4625 10.1961 11.9849 10.3934 11.6268 10.7516L11.3552 11.0232C11.2882 11.0901 11.1981 11.127 11.1017 11.127C11.0052 11.127 10.9151 11.0901 10.848 11.023L8.97797 9.15301C8.91098 9.08605 8.87411 8.99598 8.87407 8.89945C8.87407 8.80293 8.9109 8.71293 8.97782 8.64602L9.24954 8.37434C9.99106 7.63281 9.99106 6.42625 9.24957 5.68473L8.70618 5.14117C8.34793 4.78309 7.87035 4.58594 7.36133 4.58594C6.85231 4.58594 6.37473 4.78313 6.01653 5.14133L5.61137 5.54656C4.75477 6.40316 4.44383 7.67879 4.73575 9.13855C5.01047 10.5121 5.79575 11.9027 6.94696 13.054C8.3977 14.5046 10.2454 15.3707 11.8895 15.3708H11.8898C12.9258 15.3708 13.8127 15.0316 14.4545 14.3898L14.8597 13.9846C15.6012 13.2431 15.6012 12.0365 14.8597 11.2949L14.3164 10.7516ZM14.0311 13.156L13.6259 13.5612C13.2086 13.9784 12.6084 14.1989 11.8899 14.1989H11.8897C10.5494 14.1989 9.01141 13.4611 7.77567 12.2254C6.78621 11.2359 6.11473 10.058 5.88493 8.90875C5.67231 7.84559 5.86946 6.94586 6.44008 6.3752L6.8452 5.97C6.98203 5.8332 7.16532 5.75785 7.36137 5.75785C7.5575 5.75785 7.74086 5.8332 7.87762 5.96992L8.42094 6.51336C8.70555 6.79801 8.70555 7.26109 8.42098 7.5457L8.14926 7.81738C7.86094 8.10566 7.70219 8.49004 7.70223 8.89965C7.70227 9.30918 7.8611 9.69352 8.14938 9.98176L10.0194 11.8517C10.3078 12.1402 10.6922 12.299 11.1017 12.299C11.5112 12.299 11.8955 12.1402 12.1838 11.8519L12.4555 11.5803C12.5923 11.4434 12.7755 11.3681 12.9716 11.3681C13.1676 11.3681 13.3509 11.4434 13.4878 11.5803L14.0311 12.1236C14.3157 12.4082 14.3157 12.8714 14.0311 13.156Z" fill="white"/>
  </g>
  <defs>
    <clipPath id="clip0_23817_1976">
      <rect width="20" height="20" fill="white"/>
    </clipPath>
  </defs>
</svg>